<svg width="111" height="33" viewBox="0 0 111 33" fill="none" xmlns="http://www.w3.org/2000/svg">
<path d="M43.76 18.18V15.86H46.74C47.3667 15.86 47.8467 15.7 48.18 15.38C48.5267 15.06 48.7 14.6267 48.7 14.08C48.7 13.5733 48.5333 13.1533 48.2 12.82C47.8667 12.4867 47.3867 12.32 46.76 12.32H43.76V9.88H47.12C48.0533 9.88 48.8733 10.06 49.58 10.42C50.2867 10.7667 50.84 11.2533 51.24 11.88C51.64 12.5067 51.84 13.2267 51.84 14.04C51.84 14.8667 51.64 15.5933 51.24 16.22C50.84 16.8333 50.28 17.3133 49.56 17.66C48.84 18.0067 47.9933 18.18 47.02 18.18H43.76ZM41.36 24V9.88H44.5V24H41.36ZM49.04 24L44.64 17.92L47.52 17.14L52.76 24H49.04ZM58.2795 24.22C57.2795 24.22 56.3729 24 55.5595 23.56C54.7595 23.1067 54.1262 22.4933 53.6595 21.72C53.1929 20.9467 52.9595 20.08 52.9595 19.12C52.9595 18.16 53.1929 17.3 53.6595 16.54C54.1262 15.78 54.7595 15.18 55.5595 14.74C56.3595 14.2867 57.2662 14.06 58.2795 14.06C59.2929 14.06 60.1995 14.28 60.9995 14.72C61.7995 15.16 62.4329 15.7667 62.8995 16.54C63.3662 17.3 63.5995 18.16 63.5995 19.12C63.5995 20.08 63.3662 20.9467 62.8995 21.72C62.4329 22.4933 61.7995 23.1067 60.9995 23.56C60.1995 24 59.2929 24.22 58.2795 24.22ZM58.2795 21.44C58.7195 21.44 59.1062 21.3467 59.4395 21.16C59.7729 20.96 60.0262 20.6867 60.1995 20.34C60.3862 19.98 60.4795 19.5733 60.4795 19.12C60.4795 18.6667 60.3862 18.2733 60.1995 17.94C60.0129 17.5933 59.7529 17.3267 59.4195 17.14C59.0995 16.94 58.7195 16.84 58.2795 16.84C57.8529 16.84 57.4729 16.94 57.1395 17.14C56.8062 17.3267 56.5462 17.5933 56.3595 17.94C56.1729 18.2867 56.0795 18.6867 56.0795 19.14C56.0795 19.58 56.1729 19.98 56.3595 20.34C56.5462 20.6867 56.8062 20.96 57.1395 21.16C57.4729 21.3467 57.8529 21.44 58.2795 21.44ZM65.403 24V9.88H67.643L73.203 18.54H72.063L77.603 9.88H79.863V24H76.723V15.18L77.283 15.32L73.663 20.96H71.583L67.983 15.32L68.523 15.18V24H65.403ZM89.3109 24.24C88.2443 24.24 87.2576 24.0533 86.3509 23.68C85.4576 23.3067 84.6709 22.7867 83.9909 22.12C83.3109 21.4533 82.7843 20.68 82.4109 19.8C82.0376 18.9067 81.8509 17.9467 81.8509 16.92C81.8509 15.88 82.0376 14.92 82.4109 14.04C82.7843 13.16 83.3043 12.3933 83.9709 11.74C84.6376 11.0733 85.4176 10.56 86.3109 10.2C87.2176 9.82667 88.2043 9.64 89.2709 9.64C90.3243 9.64 91.2976 9.82667 92.1909 10.2C93.0976 10.56 93.8843 11.0733 94.5509 11.74C95.2309 12.3933 95.7576 13.1667 96.1309 14.06C96.5043 14.94 96.6909 15.9 96.6909 16.94C96.6909 17.9667 96.5043 18.9267 96.1309 19.82C95.7576 20.7 95.2376 21.4733 94.5709 22.14C93.9043 22.7933 93.1176 23.3067 92.2109 23.68C91.3176 24.0533 90.3509 24.24 89.3109 24.24ZM89.2709 21.38C90.1109 21.38 90.8443 21.1933 91.4709 20.82C92.1109 20.4467 92.6043 19.9267 92.9509 19.26C93.2976 18.58 93.4709 17.8 93.4709 16.92C93.4709 16.2533 93.3709 15.6533 93.1709 15.12C92.9709 14.5733 92.6843 14.1067 92.3109 13.72C91.9376 13.32 91.4909 13.02 90.9709 12.82C90.4643 12.6067 89.8976 12.5 89.2709 12.5C88.4309 12.5 87.6909 12.6867 87.0509 13.06C86.4243 13.42 85.9376 13.9333 85.5909 14.6C85.2443 15.2533 85.0709 16.0267 85.0709 16.92C85.0709 17.5867 85.1709 18.1933 85.3709 18.74C85.5709 19.2867 85.8509 19.76 86.2109 20.16C86.5843 20.5467 87.0309 20.8467 87.5509 21.06C88.0709 21.2733 88.6443 21.38 89.2709 21.38ZM106.961 24L103.021 17.7H102.641L97.2006 9.88H100.941L104.821 15.8H105.201L110.641 24H106.961ZM96.9406 24L102.161 16.44L104.581 17.8L100.521 24H96.9406ZM105.321 17.34L102.901 15.98L106.821 9.88H110.401L105.321 17.34Z" fill="white"/>
<rect width="33" height="33" rx="16.5" fill="#E0EE8D"/>
<path d="M9 9H20.5C22.433 9 24 10.567 24 12.5V12.5C24 14.433 22.433 16 20.5 16H9V9Z" fill="black"/>
<path d="M9 17H17C20.866 17 24 20.134 24 24V24H9V17Z" fill="black"/>
</svg>
