<svg width="96" height="33" viewBox="0 0 96 33" fill="none" xmlns="http://www.w3.org/2000/svg">
<path d="M43.76 18.18V15.86H46.74C47.3667 15.86 47.8467 15.7 48.18 15.38C48.5267 15.06 48.7 14.6267 48.7 14.08C48.7 13.5733 48.5333 13.1533 48.2 12.82C47.8667 12.4867 47.3867 12.32 46.76 12.32H43.76V9.88H47.12C48.0533 9.88 48.8733 10.06 49.58 10.42C50.2867 10.7667 50.84 11.2533 51.24 11.88C51.64 12.5067 51.84 13.2267 51.84 14.04C51.84 14.8667 51.64 15.5933 51.24 16.22C50.84 16.8333 50.28 17.3133 49.56 17.66C48.84 18.0067 47.9933 18.18 47.02 18.18H43.76ZM41.36 24V9.88H44.5V24H41.36ZM49.04 24L44.64 17.92L47.52 17.14L52.76 24H49.04ZM58.2795 24.22C57.2795 24.22 56.3729 24 55.5595 23.56C54.7595 23.1067 54.1262 22.4933 53.6595 21.72C53.1929 20.9467 52.9595 20.08 52.9595 19.12C52.9595 18.16 53.1929 17.3 53.6595 16.54C54.1262 15.78 54.7595 15.18 55.5595 14.74C56.3595 14.2867 57.2662 14.06 58.2795 14.06C59.2929 14.06 60.1995 14.28 60.9995 14.72C61.7995 15.16 62.4329 15.7667 62.8995 16.54C63.3662 17.3 63.5995 18.16 63.5995 19.12C63.5995 20.08 63.3662 20.9467 62.8995 21.72C62.4329 22.4933 61.7995 23.1067 60.9995 23.56C60.1995 24 59.2929 24.22 58.2795 24.22ZM58.2795 21.44C58.7195 21.44 59.1062 21.3467 59.4395 21.16C59.7729 20.96 60.0262 20.6867 60.1995 20.34C60.3862 19.98 60.4795 19.5733 60.4795 19.12C60.4795 18.6667 60.3862 18.2733 60.1995 17.94C60.0129 17.5933 59.7529 17.3267 59.4195 17.14C59.0995 16.94 58.7195 16.84 58.2795 16.84C57.8529 16.84 57.4729 16.94 57.1395 17.14C56.8062 17.3267 56.5462 17.5933 56.3595 17.94C56.1729 18.2867 56.0795 18.6867 56.0795 19.14C56.0795 19.58 56.1729 19.98 56.3595 20.34C56.5462 20.6867 56.8062 20.96 57.1395 21.16C57.4729 21.3467 57.8529 21.44 58.2795 21.44ZM65.123 24V9.48H68.183V24H65.123ZM70.3378 24V9.48H73.3978V24H70.3378ZM80.3527 24.22C79.2993 24.22 78.3593 24.0067 77.5327 23.58C76.7193 23.14 76.0793 22.5333 75.6127 21.76C75.146 20.9867 74.9127 20.1133 74.9127 19.14C74.9127 18.1667 75.1393 17.3 75.5927 16.54C76.0593 15.7667 76.686 15.16 77.4727 14.72C78.2593 14.28 79.146 14.06 80.1327 14.06C81.0927 14.06 81.9393 14.2667 82.6727 14.68C83.406 15.0933 83.9793 15.6667 84.3927 16.4C84.8193 17.1333 85.0327 17.9733 85.0327 18.92C85.0327 19.0933 85.0193 19.28 84.9927 19.48C84.9793 19.6667 84.946 19.8867 84.8927 20.14L76.5127 20.16V18.06L83.5927 18.04L82.2727 18.92C82.2593 18.36 82.1727 17.9 82.0127 17.54C81.8527 17.1667 81.6127 16.8867 81.2927 16.7C80.986 16.5 80.606 16.4 80.1527 16.4C79.6727 16.4 79.2527 16.5133 78.8927 16.74C78.546 16.9533 78.2727 17.26 78.0727 17.66C77.886 18.06 77.7927 18.5467 77.7927 19.12C77.7927 19.6933 77.8927 20.1867 78.0927 20.6C78.306 21 78.5993 21.3133 78.9727 21.54C79.3593 21.7533 79.8127 21.86 80.3327 21.86C80.8127 21.86 81.246 21.78 81.6327 21.62C82.0193 21.4467 82.3593 21.1933 82.6527 20.86L84.3327 22.54C83.8527 23.1 83.2727 23.52 82.5927 23.8C81.9127 24.08 81.166 24.22 80.3527 24.22ZM92.2758 24L89.9358 20.22L89.2758 19.8L85.4558 14.28H89.0358L91.2158 17.82L91.8558 18.22L95.8158 24H92.2758ZM85.2758 24L89.2558 18.34L90.9958 20.3L88.6158 24H85.2758ZM91.8358 19.78L90.0958 17.82L92.2958 14.28H95.6158L91.8358 19.78Z" fill="white"/>
<rect width="33" height="33" rx="16.5" fill="#E0EE8D"/>
<path d="M9 9H20.5C22.433 9 24 10.567 24 12.5C24 14.433 22.433 16 20.5 16H9V9Z" fill="black"/>
<path d="M9 17H17C20.866 17 24 20.134 24 24H9V17Z" fill="black"/>
</svg>
